<?xml version="1.0" encoding="utf-8"?>
<!DOCTYPE svg PUBLIC "-//W3C//DTD SVG 1.1//EN" "http://www.w3.org/Graphics/SVG/1.1/DTD/svg11.dtd">
<svg version="1.1" id="Layer_1" xmlns="http://www.w3.org/2000/svg" xmlns:xlink="http://www.w3.org/1999/xlink" x="0px" y="0px"
	 viewBox="0 0 562.885 555.203" enable-background="new 0 0 562.885 555.203"
	 xml:space="preserve">
<g>
	<g>
		<path fill="white" d="M221.781,364.568c10.368,2.6,31.5,0.199,39.501-11.598c1.44-2.118,2.009-3.918,1.296-6.6
			c-4.169-15.692-5.361-31.518,0.316-47.083c4.399-12.062,11.667-21.819,24.472-26.173c19.82-6.74,33.199,8.4,31.9,25.208
			c-0.883,12.051-4.853,23.123-10.132,33.814c-1.987,4.023-4.192,7.94-6.682,12.601c3.114-0.281,5.778-0.3,8.354-0.789
			c14.969-2.844,25.762-11.624,33.832-24.154c0.411-0.641,0.625-1.578,0.549-2.339c-2.328-23.306-0.318-46.348,4.348-69.195
			c7.681-37.607,23.162-71.692,46.598-102.128c4.201-5.456,8.932-10.358,15.207-13.435c8.036-3.939,13.841-2.1,18.2,5.705
			c3.706,6.7,5.1,14,5.4,21.479c0.841,19.75-3.514,38.71-10.525,56.9c-6.862,17.766-15.062,35.035-23.092,52.327
			c-7.771,16.731-16.075,33.213-24.138,49.808c-0.133,0.272-0.179,0.587-0.306,1c3.671,3.3,8.101,3.3,12.4,2.432
			c7.947-1.657,14.362-6.279,20.363-11.439c11.799-10.146,21.181-22.399,30.174-34.984c1.296-1.814,0.774-2.855-1.028-3.635
			c-1.056-0.458-2.122-0.907-3.217-1.257c-6.353-2.03-9.921-8.407-8.346-14.87c2.968-12.167,13.604-15.059,23.297-11.742
			c9.978,3.4,14.6,11.1,15,21.092c0.219,4.6,2.5,6.8,6,8.6c6.188,3.1,11.5,7.3,15.8,12.749c8.076,10.3,9.899,22.1,5.899,34.192
			c-2.416,7.34-8.07,12.989-13.996,17.9c-14.565,12.179-30.658,13.104-47.821,2.951c-2.594-1.535-5.154-4.411-7.695-4.372
			c-2.386,0.035-4.648,3.229-7.101,4.8c-11.003,7.159-22.771,11.624-36.215,9.96c-7.58-0.938-14.301-3.95-20.412-8.438
			c-0.752-0.554-1.502-1.105-2.396-1.765c-4.853,8.13-11.334,14.431-19.539,18.874c-11.905,6.448-24.696,7.885-37.889,6.046
			c-5.687-0.793-11.255-2.429-16.909-3.501c-0.98-0.187-2.447,0.198-3.156,0.876c-16.516,15.785-36.317,22.068-58.812,20.106
			c-6.229-0.544-12.355-2.212-18.552-3.218c-1.035-0.168-2.498,0.06-3.247,0.703c-17.066,14.681-36.488,24.481-58.685,28.607
			c-1.855,0.345-3.729,0.604-5.602,0.8c-1.744,0.225-3.499,0.369-5.608,0.586c3.833,4.101,7.5,7.9,10.9,11.798
			c14.382,16.601,26,34.801,31.8,56.2c4.826,17.9,4.3,35.495-2.791,52.755c-5.603,13.596-18.551,23.028-32.146,22.269
			c-13.435-0.753-24.996-5.754-32.874-17.497c-8.892-13.253-13.545-28.051-16.28-43.561c-3.934-22.309-3.724-44.724-1.438-67.176
			c0.251-2.474,0.45-4.952,0.702-7.744c-1.777,0.092-3.321,0.271-4.86,0.233c-8.693-0.205-27.633,0.998-36.363-5.73
			c-9.397-8.414-13.865-19.286-15.422-31.499c-2.38-18.668,2.118-36.292,8.841-53.434c3.643-9.287,10.871-12.501,19.337-9.409
			c5.55,2,8.4,7.2,6.8,13.4c-0.944,3.677-2.481,7.392-4.565,10.554c-9.545,14.483-13.259,29.618-5.876,46.14
			c6.903,15.4,20.3,18.5,34.3,15.7c0.685-0.136,1.508-1.789,1.528-2.751c0.375-17.507,2.883-34.688,7.6-51.547
			c4.244-15.167,10.553-29.332,19.691-42.262c4.469-6.323,7.96-13.332,12.354-19.714c5.564-8.081,11.866-15.681,20.879-20.124
			c10.17-5.013,16.887-2.715,22,6.4c4.197,7.5,5.1,15.7,4.3,24.104c-1.939,19.149-9.618,36.379-18.224,53.227
			c-7.327,14.344-16.277,27.658-26.782,39.9c-0.18,0.21-0.27,0.496-0.852,1.603c4.17-1.171,7.709-1.926,11.077-3.149
			c15.462-5.624,28.943-14.686,41.896-24.597c0.619-0.474,1.011-1.981,0.751-2.754c-4.064-12.076-6.122-24.433-5.007-37.167
			c1.94-22.166,13.344-37.832,33.439-46.998c9.614-4.384,20.312-0.627,26.3,8.129c6.111,8.9,5.8,18.601,3.6,28.443
			c-3.602,16.089-11.241,30.404-19.754,44.3c-0.873,1.688-1.75,3.087-2.65,4.556H221.781z M109.932,415.154
			c-3.563,5.415-6.491,15.682-7.241,23.899c-2.067,22.5,3.3,43.7,11.9,64.228c1.896,4.6,9.3,9.399,13.2,8.828
			c5.636-0.866,7.061-5.62,8.709-10.066c0.108-0.293,0.154-0.609,0.241-0.911c2.834-9.867,2.751-19.831,1.277-29.909
			c-1.906-13.022-4.826-25.729-11.001-37.468C123.04,426.1,117.8,419.5,109.9,415.154H109.932z M364.468,287.939
			c0.674-0.824,1.083-1.252,1.409-1.735c17.729-26.318,31.499-54.391,37.8-85.742c2.388-11.874,3.863-23.834,2.312-35.961
			c-0.199-1.56-0.945-3.049-1.701-5.384c-3.864,2.862-7.371,4.987-10.312,7.723c-10.062,9.364-15.6,21.451-19.621,34.282
			c-8.705,27.768-10.641,56.373-10.187,85.2c0.007,0.378,0.132,0.777,0.332,1.617H364.468z M107.833,386.606
			c2.634,1,4.4,1,6.682-1.21c3.056-2.979,6.072-6.127,8.458-9.642c8.997-13.254,15.228-27.94,21.299-42.672
			c3.229-7.833,6.307-15.744,9.03-23.765c1.482-4.365,1.274-8.924-1.715-12.895c-1.155-1.535-2.381-2.271-4.121-0.628
			c-3.501,3.306-7.411,6.235-10.573,9.8c-9.869,11.222-15.78,24.613-20.352,38.667c-4.489,13.837-7.241,27.938-8.741,42.344H107.833
			z M290.539,289.4c-18.237,14.117-19.182,36.057-9.876,50.479c1.874-1.74,3.977-3.209,5.459-5.149
			c8.223-10.771,10.488-23.292,9.98-36.438c-0.141-3.692-2.203-6.792-5.603-8.931L290.539,289.4z M199.442,346.89
			c12.102-15.27,14.641-32.65,14.975-51.077C199.18,306.1,194.3,329,199.4,346.89H199.442z M439.045,313.649
			c3.271,5,7.5,7.1,12.9,5.899c7.119-1.571,13.58-9.213,14.386-17.012c0.448-4.338-2.332-9.092-5.899-10.85
			C453.254,299,446.3,306.2,439,313.649H439.045z M452.47,258.645c-0.678-1.151-1.756-3.257-3.095-5.182
			c-1.545-2.222-3.778-2.779-6.382-2.064c-2.726,0.747-4.685,2.741-4.7,5.2c-0.012,2,1.4,4.3,2.8,5.863c1.156,1.3,3.2,1.8,5,2.315
			c3.91,1.123,6.507-0.977,6.407-6.132H452.47z"/>
		<path fill="white" d="M87.509,117.896c-11.842,8.778-22.533,17.867-31.416,28.9c-11.739,14.549-23.233,29.301-36.811,42.241
			c-3.313,3.158-6.705,5.98-11.887,5.131c-5.623-0.921-9.215-7.193-6.435-12.123c17.24-30.569,38.375-57.909,66.608-79.221
			c15.428-11.646,32.373-20.228,51.539-23.742c10.462-1.918,21.143-3.174,31.536-0.181c10.636,3.1,19.8,8.8,25.6,18.634
			c6.424,10.8,5.5,22.1,1.7,33.425c-6.661,19.756-17.156,37.515-28.61,54.8c-3.885,5.851-7.922,11.601-12.025,17.595
			c5.388,7,12.1,12.7,19.3,17.791c17.537,12.3,37.1,19.9,58.1,23.8c10.312,1.9,20.7,0.2,30.947-1.906
			c25.363-5.323,48.401-16.243,70.491-29.417c3.334-1.988,6.564-4.158,9.963-6.027c4.492-2.47,8.649-2.22,11.4,0.411
			c3.077,2.9,3.9,7.9,1.5,12.228c-1.279,2.333-3.001,4.697-5.105,6.3c-28.043,20.875-59.177,34.568-94.021,38.771
			c-42.055,5.074-79.511-6.657-112.783-32.449c-4.97-3.854-9.696-8.023-14.701-12.184c-3.282,1.953-5.442,5.082-5.836,8.73
			c-0.889,8.215-1.423,16.488-1.649,24.75c-0.472,17.208-0.559,34.427-1.015,51.6c-0.111,4.18-0.812,8.344-4.902,11.029
			c-4.307,2.829-8.677,2.626-12.76-0.551c-5.387-4.191-6.559-10.063-6.754-16.257c-0.361-11.438-0.48-22.887-0.693-34.33
			c-0.023-1.253-0.003-2.506-0.003-4.13c-4.077,1.131-7.107,3.364-10.154,5.8c-8.25,6.593-17.684,9.767-28.161,7.459
			c-3.697-0.814-7.745-2.819-10.309-5.531c-13.034-13.787-14.581-26.71-5.489-41.979c12.51-21.008,30.505-34.298,55.224-37.402
			c2.119-0.266,2.856-1.024,2.99-3.032c0.621-9.324,1.336-18.642,2.004-27.963c0.887-12.358,1.767-24.716,2.632-37.076
			c0.048-1.091-0.024-2.191-0.024-3.895H87.509z M109.425,183.7c0.299,0.1,0.6,0.2,0.9,0.288c0.953-0.735,2.039-1.349,2.839-2.224
			c7.428-8.129,14.902-16.219,22.173-24.488c7.519-8.55,10.652-18.952,11.319-30.042c0.493-8.2-2.76-14.956-9.934-19.446
			c-7.32-4.583-14.604-4.181-22.022-0.025c-2.942,1.648-4.391,3.566-4.423,7.1c-0.136,14.803-0.599,29.603-0.826,44.406
			c-0.129,8.131-0.051,16.231-0.051,24.395L109.425,183.7z M51.107,241.892c0.712-0.285,2.357-0.698,3.741-1.541
			c5.183-3.157,10.138-6.714,15.456-9.613c3.984-2.172,6.257-4.837,6.105-9.54c-0.07-2.162,0.681-4.338,0.885-6.524
			c0.101-1.077,0.14-2.885-0.383-3.137c-0.947-0.457-2.569-0.395-3.503,0.1c-5.235,3.043-10.639,5.915-15.427,9.576
			c-5.486,4.194-9.507,9.751-11.039,16.71c-0.634,2.977,0.358,3.977,4.158,3.969H51.107z"/>
		<path fill="white" d="M333.226,395.354c19.289,1.101,38.601,2.5,57.9,3.301c23.553,1.1,47.1,0.899,69.919-6.054
			c21.004-6.414,38.446-18.074,51.716-35.672c17.418-23.1,18.452-48.229,2.977-72.713c-11.448-18.113-27.56-31.19-45.892-41.776
			c-9.838-5.681-20.26-10.004-30.979-13.757c-2.981-1.044-5.608-3.531-7.961-5.808c-1.932-1.87-1.193-4.006,1.503-4.211
			c4.562-0.347,9.24-0.493,13.8,0.097c29.135,3.8,55.8,14.1,78.4,33c20.426,17.1,33.6,39.1,37.5,65.861
			c3.674,25.563-4.183,47.825-21.769,66.408c-19.75,20.868-44.2,34.15-71.665,42c-26.61,7.558-53.488,8.343-80.681,3.022
			c-27.732-5.425-55.768-7.671-83.996-5.348c-24.486,2.016-48.269,7.198-69.293,20.6c-9.507,6.04-17.855,13.894-26.788,20.85
			c-3.806,2.963-7.7,5.821-11.679,8.548c-1.527,1.046-3.346,1.759-5.128,2.3c-3.079,0.968-4.714-0.201-4.573-3.438
			c0.103-2.376,0.593-4.779,1.23-7.082c4.455-16.11,14.812-27.975,27.603-38.055c19.863-15.654,42.735-24.161,67.411-28.401
			c16.621-2.926,33.518-3.625,50.418-3.672H333.226z"/>
		<path fill="white" d="M221.044,187.064c10.254,0.6,23.106-7.279,26.226-16.403c1.148-3.359,0.733-7.252,1.039-10.9
			c0.869-10.383,2.662-20.561,6.313-30.378c4.874-13.107,13.994-20.916,28.011-22.466c8.22-0.909,15.3,2.1,20.4,8.402
			c1.995,2.5,2.3,6.6,2.6,10.111c0.953,11.419-1.604,22.303-5.807,32.9c-0.425,1.065-0.843,2.133-1.263,3.197
			c8.769,3.6,23.601,1.4,29.178-8.782c0.371-0.68,0.605-1.602,0.498-2.353c-4.771-33.571,1.188-65.45,14.195-96.5
			c7.061-16.855,16.619-31.547,31.241-42.58c4.989-3.764,10.521-6.901,16.075-9.803c6.182-3.228,12.491-0.989,15.6,5.393
			c4.779,9.8,5.7,20.2,4.101,30.991c-3.458,23.028-12.129,44.286-23.028,64.5c-10.023,18.637-21.22,36.649-32.148,54.788
			c-1.883,3.127-1.928,5.1,0.301,8.014c3.426,4.5,6.4,9.3,9.3,14.2c1.383,2.3,1.5,5.122-0.296,7.449
			c-1.696,2.249-4.423,2.944-6.805,2.091c-2.113-0.757-4.232-2.423-5.562-4.258c-2.745-3.789-4.966-7.958-7.499-12.131
			c-6.227,5.895-13.33,10.832-21.66,13.74c-8.5,2.968-17.035,3.202-25.598-0.402c-4.909,5.968-10.848,10.251-18.374,12.089
			c-8.443,2.062-16.468,0.534-24.183-2.985c-1.751-0.799-2.651-0.606-4.009,0.7c-8.87,8.426-19.223,13.672-31.717,12.808
			c-4.816-0.333-9.656-1.84-14.239-3.494c-2.912-1.051-4.766-0.406-6.76,1.4c-4.246,3.915-8.466,7.862-12.828,11.644
			c-2.051,1.779-4.3,3.387-6.644,4.757c-3.656,2.137-9.013,1.376-10.839-1.654c-2.179-3.614-3.716-8.611,0.835-12.448
			c8.508-7.173,16.631-14.802,25.05-22.084c2.125-1.838,2.252-3.443,1.456-6.011c-6.025-19.435-5.038-47.324,13.451-63.62
			c4.905-4.324,10.018-8.4,17.04-8.601c5.793-0.165,10.1,2.4,13,7.3c4.865,8.3,5.5,17.3,4.1,26.517
			c-1.878,12.511-7.64,23.421-14.192,33.999C225.33,179.7,223.3,183.3,221,187.1L221.044,187.064z M341.074,124.681
			c19.817-17.302,42.636-78.591,38.573-103.34C353.832,51,339.8,84.6,341.101,124.681H341.074z M284.151,119.9
			c-7.96,1.095-13.981,4.728-16.882,13.479c-3.308,9.979-2.291,20.111-0.517,30.186c0.335,1.9,1.6,3.6,2.5,5.4
			c1.569-1.382,3.759-2.464,4.599-4.199c3.504-7.247,6.82-14.604,9.776-22.09c2.146-5.436,3.866-11.075,5.306-16.743
			c0.941-3.733-1.232-6.133-4.732-6.054L284.151,119.9z M206.972,166.147c14.036-9.793,15.828-27.677,9.041-39.378
			C204.629,136.4,200.4,154.6,207,166.147H206.972z"/>
		<path fill="white" d="M397.082,206.818c0.054,3.879-2.438,6.05-6.122,4.8c-5.077-1.686-8.872-5.12-11.105-10.023
			c-1.17-2.571-0.139-4.308,2.707-5.246C389.006,194.2,397,200,397.1,206.818H397.082z"/>
	</g>
</g>
</svg>
